# xmcd
#
# Track frame offsets:
#	150
#	12797
#	30242
#	42180
#	54710
#	66385
#	78247
#	91940
#	100625
#	119517
#	133940
#
# Disc length: 1903 seconds
#
# Revision: 1
# Processed by: cddbd v1.4PL0 Copyright (c) Steve Scherf et al.
# Submitted via: audiograbber 1.80
#
DISCID=87076d0b
DTITLE=The Bassholes - The Secret Strength of Depression
DYEAR=1900
DGENRE=
TTITLE0=Missing Linkster
TTITLE1=20-20 Vision
TTITLE2=I Saw Beauty
TTITLE3=Evil Eagle
TTITLE4=Lightswitch
TTITLE5=Bowling Ball
TTITLE6=Stack O Lee
TTITLE7=Haunted Hill
TTITLE8=Nakema
TTITLE9=(I'm Gonna) Write Me a Letter'
TTITLE10=Microscope Feeling
EXTD=
EXTT0=
EXTT1=
EXTT2=
EXTT3=
EXTT4=
EXTT5=
EXTT6=
EXTT7=
EXTT8=
EXTT9=
EXTT10=
PLAYORDER=
